<svg width="100" height="54" viewBox="0 0 100 54" fill="none" xmlns="http://www.w3.org/2000/svg">
<path d="M1.08 27.22C1.08 24.7 1.584 22.456 2.592 20.488C3.624 18.52 5.088 16.996 6.984 15.916C8.88 14.812 11.112 14.26 13.68 14.26C15.888 14.26 17.856 14.68 19.584 15.52C21.336 16.336 22.752 17.5 23.832 19.012C24.936 20.524 25.668 22.288 26.028 24.304H17.604C17.22 23.464 16.668 22.816 15.948 22.36C15.252 21.88 14.448 21.64 13.536 21.64C12.192 21.64 11.124 22.144 10.332 23.152C9.564 24.16 9.18 25.516 9.18 27.22C9.18 28.924 9.564 30.28 10.332 31.288C11.124 32.296 12.192 32.8 13.536 32.8C14.448 32.8 15.252 32.572 15.948 32.116C16.668 31.636 17.22 30.976 17.604 30.136H26.028C25.668 32.152 24.936 33.916 23.832 35.428C22.752 36.94 21.336 38.116 19.584 38.956C17.856 39.772 15.888 40.18 13.68 40.18C11.112 40.18 8.88 39.64 6.984 38.56C5.088 37.456 3.624 35.92 2.592 33.952C1.584 31.984 1.08 29.74 1.08 27.22ZM51.8375 19.696L38.8415 49.72H30.0935L35.2055 38.992L26.7455 19.696H35.6375L39.4535 29.992L43.0175 19.696H51.8375ZM61.2608 23.44C62.0768 22.264 63.0728 21.328 64.2488 20.632C65.4248 19.912 66.6488 19.552 67.9208 19.552V28.084H65.6528C64.1408 28.084 63.0248 28.348 62.3048 28.876C61.6088 29.404 61.2608 30.34 61.2608 31.684V40H53.2688V19.696H61.2608V23.44ZM74.1054 18.076C72.7134 18.076 71.5974 17.704 70.7574 16.96C69.9174 16.216 69.4974 15.28 69.4974 14.152C69.4974 13 69.9174 12.052 70.7574 11.308C71.5974 10.54 72.7134 10.156 74.1054 10.156C75.4734 10.156 76.5774 10.54 77.4174 11.308C78.2574 12.052 78.6774 13 78.6774 14.152C78.6774 15.28 78.2574 16.216 77.4174 16.96C76.5774 17.704 75.4734 18.076 74.1054 18.076ZM78.0654 19.696V40H70.0734V19.696H78.0654ZM89.667 13.36V40H81.675V13.36H89.667Z" fill="white"/>
<rect x="94" y="34" width="6" height="6" fill="#FF4C60"/>
</svg>
